<svg id="visual" viewBox="0 0 900 600" width="900" height="600" xmlns="http://www.w3.org/2000/svg" xmlns:xlink="http://www.w3.org/1999/xlink" version="1.1"><rect x="0" y="0" width="900" height="600" fill="#90c7e3"></rect><path d="M0 238L37.5 224.7C75 211.3 150 184.7 225 183C300 181.3 375 204.7 450 198.3C525 192 600 156 675 149.3C750 142.7 825 165.3 862.5 176.7L900 188L900 0L862.5 0C825 0 750 0 675 0C600 0 525 0 450 0C375 0 300 0 225 0C150 0 75 0 37.5 0L0 0Z" fill="#0066FF" stroke-linecap="round" stroke-linejoin="miter"></path></svg>