<svg id="visual" viewBox="0 0 900 600" width="900" height="600" xmlns="http://www.w3.org/2000/svg" xmlns:xlink="http://www.w3.org/1999/xlink" version="1.1"><rect x="0" y="0" width="900" height="600" fill="#FFFFFF"></rect><path d="M0 380L37.5 383.8C75 387.7 150 395.3 225 413.3C300 431.3 375 459.7 450 450.5C525 441.3 600 394.7 675 372C750 349.3 825 350.7 862.5 351.3L900 352L900 601L862.5 601C825 601 750 601 675 601C600 601 525 601 450 601C375 601 300 601 225 601C150 601 75 601 37.5 601L0 601Z" fill="#6599e8" stroke-linecap="round" stroke-linejoin="miter"></path></svg>